<?xml version="1.0" encoding="UTF-8" standalone="no"?>
<!-- Generator: Adobe Illustrator 19.0.0, SVG Export Plug-In . SVG Version: 6.00 Build 0)  -->

<svg
   xmlns:dc="http://purl.org/dc/elements/1.1/"
   xmlns:cc="http://creativecommons.org/ns#"
   xmlns:rdf="http://www.w3.org/1999/02/22-rdf-syntax-ns#"
   xmlns:svg="http://www.w3.org/2000/svg"
   xmlns="http://www.w3.org/2000/svg"
   xmlns:sodipodi="http://sodipodi.sourceforge.net/DTD/sodipodi-0.dtd"
   xmlns:inkscape="http://www.inkscape.org/namespaces/inkscape"
   version="1.1"
   id="Capa_1"
   x="0px"
   y="0px"
   viewBox="0 0 294.842 294.842"
   style="enable-background:new 0 0 294.842 294.842;"
   xml:space="preserve"
   inkscape:version="0.91 r13725"
   sodipodi:docname="order (копия).svg"><metadata
     id="metadata3525"><rdf:RDF><cc:Work
         rdf:about=""><dc:format>image/svg+xml</dc:format><dc:type
           rdf:resource="http://purl.org/dc/dcmitype/StillImage" /></cc:Work></rdf:RDF></metadata><defs
     id="defs3523" /><sodipodi:namedview
     pagecolor="#ffffff"
     bordercolor="#666666"
     borderopacity="1"
     objecttolerance="10"
     gridtolerance="10"
     guidetolerance="10"
     inkscape:pageopacity="0"
     inkscape:pageshadow="2"
     inkscape:window-width="1853"
     inkscape:window-height="1056"
     id="namedview3521"
     showgrid="false"
     inkscape:zoom="3.1304901"
     inkscape:cx="147.42101"
     inkscape:cy="160.19856"
     inkscape:window-x="67"
     inkscape:window-y="24"
     inkscape:window-maximized="1"
     inkscape:current-layer="Capa_1" /><g
     id="g3477"
     transform="matrix(1,0,0,-1,0,294.841)"><path
       d="m 292.128,214.846 c -2.342,-2.344 -6.143,-2.344 -8.484,0 l -59.512,59.511 0,-268.357 c 0,-3.313 -2.687,-6 -6,-6 -3.313,0 -6,2.687 -6,6 l 0,268.356 -59.513,-59.512 c -2.342,-2.342 -6.142,-2.343 -8.485,0.001 -2.343,2.343 -2.343,6.142 0.001,8.485 l 69.755,69.754 c 1.171,1.171 2.707,1.757 4.242,1.757 1.535,0 3.071,-0.586 4.242,-1.758 l 69.754,-69.754 c 2.344,-2.342 2.344,-6.141 0,-8.483 z"
       id="path3479"
       inkscape:connector-curvature="0" /><path
       d="m 6.956,12 180.137,0 c 3.313,0 6,-2.687 6,-6 0,-3.313 -2.687,-6 -6,-6 L 6.956,0 c -3.313,0 -6,2.687 -6,6 0,3.313 2.687,6 6,6 z"
       id="path3481"
       inkscape:connector-curvature="0" /><path
       d="m 6.956,82.228 180.137,0 c 3.313,0 6,-2.687 6,-6 0,-3.313 -2.687,-6 -6,-6 l -180.137,0 c -3.313,0 -6,2.687 -6,6 0,3.313 2.687,6 6,6 z"
       id="path3483"
       inkscape:connector-curvature="0" /><path
       d="m 6.956,152.456 180.137,0 c 3.313,0 6,-2.687 6,-6 0,-3.313 -2.687,-6 -6,-6 l -180.137,0 c -3.313,0 -6,2.687 -6,6 0,3.313 2.687,6 6,6 z"
       id="path3485"
       inkscape:connector-curvature="0" /><path
       d="m 124.438,210.685 -117.482,0 c -3.313,0 -6,2.687 -6,6 0,3.313 2.687,6 6,6 l 117.482,0 c 3.313,0 6,-2.687 6,-6 0,-3.313 -2.686,-6 -6,-6 z"
       id="path3487"
       inkscape:connector-curvature="0" /><path
       d="m 124.438,280.912 -117.482,0 c -3.313,0 -6,2.687 -6,6 0,3.313 2.687,6 6,6 l 117.482,0 c 3.313,0 6,-2.687 6,-6 0,-3.313 -2.686,-6 -6,-6 z"
       id="path3489"
       inkscape:connector-curvature="0" /></g><g
     id="g3491"
     transform="matrix(1,0,0,-1,294.842,589.68402)" /><g
     id="g3493"
     transform="matrix(1,0,0,-1,294.842,589.68402)" /><g
     id="g3495"
     transform="matrix(1,0,0,-1,294.842,589.68402)" /><g
     id="g3497"
     transform="matrix(1,0,0,-1,294.842,589.68402)" /><g
     id="g3499"
     transform="matrix(1,0,0,-1,294.842,589.68402)" /><g
     id="g3501"
     transform="matrix(1,0,0,-1,294.842,589.68402)" /><g
     id="g3503"
     transform="matrix(1,0,0,-1,294.842,589.68402)" /><g
     id="g3505"
     transform="matrix(1,0,0,-1,294.842,589.68402)" /><g
     id="g3507"
     transform="matrix(1,0,0,-1,294.842,589.68402)" /><g
     id="g3509"
     transform="matrix(1,0,0,-1,294.842,589.68402)" /><g
     id="g3511"
     transform="matrix(1,0,0,-1,294.842,589.68402)" /><g
     id="g3513"
     transform="matrix(1,0,0,-1,294.842,589.68402)" /><g
     id="g3515"
     transform="matrix(1,0,0,-1,294.842,589.68402)" /><g
     id="g3517"
     transform="matrix(1,0,0,-1,294.842,589.68402)" /><g
     id="g3519"
     transform="matrix(1,0,0,-1,294.842,589.68402)" /></svg>